<?xml version="1.0" encoding="UTF-8"?><svg id="Layer_1" xmlns="http://www.w3.org/2000/svg" viewBox="0 0 1197 485.6"><defs><style>.cls-1{fill:#fff;}</style></defs><path class="cls-1" d="M302.7,162c3.5-11.6,5.4-23.8,5.4-36.6C308.1,56.2,251.9,0,182.6,0S57.1,56.2,57.1,125.5s1.9,25.1,5.5,36.7C26.3,173.5,0,207.4,0,247.4s40,89.3,89.3,89.3,11.9-.6,17.5-1.7l-42.8-42.8c-3-3-3-7.8,0-10.8,3-3,7.8-3,10.8,0l48.6,48.6c17.8-7.4,32.6-20.3,42.4-36.6l.4-137.7c0-7.6,6.2-13.7,13.8-13.7h0c7.6,0,13.8,6.2,13.7,13.8l-.5,146c2.9,3.7,6.1,7.2,9.5,10.4l78-78c3.2-3.2,8.4-3.2,11.5,0,3.2,3.2,3.2,8.4,0,11.5l-76.6,76.6c14.2,9.2,31.2,14.5,49.4,14.5,50.4,0,91.3-40.9,91.3-91.3s-22.1-69-53.9-83.3Z"/><path class="cls-1" d="M193.3,321.6v-19.9c-7.9-10.2-13.8-22-16.9-35-2.1,9.5-5.7,18.5-10.6,26.6l-.3,78.8-42.2-42.2c-5.3,2.2-10.9,3.9-16.6,5l49.5,49.5c1.5,1.5,3.5,2.2,5.4,2.2s2.7-.4,3.8-1l-.3,86.2c0,7.6,6.1,13.8,13.7,13.8h0c7.6,0,13.7-6.1,13.8-13.7l.4-134.3c1,.4,2.1,.6,3.1,.6,2.1,0,4.2-.8,5.8-2.4l13.7-13.7c-4.6-3-9-6.4-13-10.1l-9.6,9.6Z"/><polygon class="cls-1" points="338.9 82.9 429.3 82.9 429.3 336.2 490.9 336.2 490.9 82.9 581.1 82.9 581.1 31.4 338.9 31.4 338.9 82.9"/><path class="cls-1" d="M671.2,169.5c5.7-4.5,12.6-6.8,20.8-6.8s17.6,3.2,27.4,9.6l18.1-50.9c-12.3-7.3-25.2-11-38.5-11s-17.9,2.4-25.3,7.1c-7.4,4.7-15.8,14.5-25.1,29.3v-31.4h-54.3v220.8h58.4v-68.2c0-37.6,1.6-62.2,4.9-74,3.3-11.8,7.7-19.9,13.4-24.4Z"/><path class="cls-1" d="M948.8,275.7l-58.2-9.8c-3.2,11.1-7.9,19.1-14.1,24.1-6.2,5-13.9,7.5-23.1,7.5-13.4,0-24.7-4.8-33.7-14.5-9-9.6-13.7-23.1-14.1-40.4h146.4c.8-44.8-8.2-78-27.2-99.7-19-21.7-44.9-32.5-77.8-32.5s-53.4,10.4-72.6,31.1c-19.1,20.7-28.7,49.4-28.7,86s7.3,56,21.8,76.1c18.4,25.1,46.9,37.6,85.3,37.6s44.5-5.6,60.6-16.7c16.1-11.2,28-27.4,35.5-48.8Zm-130-106.7c8.3-9.3,18.9-13.9,31.6-13.9s22,4.4,30.4,13.2c8.3,8.8,12.7,21.7,13.1,38.6h-87.3c-.1-15.9,4-28.6,12.3-37.8Z"/><path class="cls-1" d="M1089.6,341.2c24.3,0,44.5-5.6,60.6-16.7,16.1-11.2,28-27.4,35.5-48.8l-58.2-9.8c-3.2,11.1-7.9,19.1-14.1,24.1-6.2,5-13.9,7.5-23.1,7.5-13.4,0-24.7-4.8-33.7-14.5-9-9.6-13.7-23.1-14.1-40.4h146.4c.8-44.8-8.2-78-27.2-99.7-19-21.7-44.9-32.5-77.8-32.5s-53.4,10.4-72.6,31.1c-19.1,20.7-28.7,49.4-28.7,86s7.3,56,21.8,76.1c18.4,25.1,46.9,37.6,85.3,37.6Zm-33.9-172.2c8.3-9.3,18.9-13.9,31.6-13.9s22,4.4,30.4,13.2c8.3,8.8,12.7,21.7,13.1,38.6h-87.3c-.1-15.9,4-28.6,12.3-37.8Z"/><path class="cls-1" d="M479.5,356c-3.4-.9-10.6-1.4-21.7-1.4h-29.3v90.5h18.3v-34.1h11.9c8.3,0,14.6-.4,19-1.3,3.2-.7,6.4-2.1,9.5-4.3,3.1-2.2,5.7-5.1,7.7-8.9,2-3.8,3-8.5,3-14s-1.7-13.1-5.2-17.6c-3.5-4.5-7.8-7.5-13-8.9Zm-2.6,33.8c-1.4,2-3.3,3.5-5.7,4.4-2.4,.9-7.2,1.4-14.4,1.4h-10v-25.7h8.8c6.6,0,11,.2,13.2,.6,3,.5,5.4,1.9,7.3,4,1.9,2.1,2.9,4.9,2.9,8.2s-.7,5-2.1,7Z"/><path class="cls-1" d="M568.1,386c-1.6-2.3-4-4.2-7.3-5.7-3.2-1.5-6.8-2.2-10.8-2.2-7.8,0-14.5,3.3-20.1,9.8v-33.3h-17.3v90.5h17.3v-32.8c0-5.5,.5-9.7,1.6-12.5,1.1-2.8,2.7-4.9,5-6.3,2.3-1.4,4.8-2.1,7.7-2.1s4.6,.5,6.3,1.6c1.7,1.1,2.8,2.6,3.5,4.4,.7,1.9,1,6.2,1,13.1v34.6h17.3v-38.5c0-5.9-.3-10.2-.9-13-.6-2.8-1.7-5.4-3.3-7.7Z"/><path class="cls-1" d="M619.7,378.1c-6.4,0-12.2,1.4-17.4,4.3-5.2,2.8-9.2,7-12.1,12.3s-4.3,11-4.3,16.7,1.4,13.9,4.3,19.2,7,9.2,12.4,11.9c5.5,2.7,11.2,4.1,17.2,4.1,9.7,0,17.8-3.3,24.2-9.8,6.4-6.5,9.6-14.7,9.6-24.7s-3.2-18-9.5-24.4c-6.3-6.4-14.5-9.7-24.4-9.7Zm11.5,49.2c-3.1,3.5-6.9,5.2-11.4,5.2s-8.3-1.7-11.4-5.2c-3.1-3.5-4.6-8.4-4.6-14.9s1.5-11.5,4.6-14.9c3.1-3.5,6.9-5.2,11.4-5.2s8.3,1.7,11.4,5.2,4.6,8.4,4.6,14.8-1.5,11.6-4.6,15.1Z"/><path class="cls-1" d="M690.2,432.2c-1.2,0-2.1-.3-2.9-.9-.8-.6-1.3-1.3-1.5-2.2-.2-.9-.3-4-.3-9.4v-26.4h11.9v-13.8h-11.9v-23.2l-17.4,10.1v13h-8v13.8h8v28.6c0,6.1,.2,10.2,.6,12.2,.5,2.8,1.3,5.1,2.4,6.8,1.2,1.7,3,3,5.5,4.1s5.3,1.6,8.5,1.6c5.1,0,9.7-.9,13.7-2.6l-1.5-13.5c-3,1.1-5.4,1.7-7,1.7Z"/><path class="cls-1" d="M739,378.1c-6.4,0-12.2,1.4-17.4,4.3s-9.2,7-12.1,12.3-4.3,11-4.3,16.7,1.4,13.9,4.3,19.2,7,9.2,12.4,11.9,11.2,4.1,17.2,4.1c9.7,0,17.8-3.3,24.2-9.8,6.4-6.5,9.6-14.7,9.6-24.7s-3.2-18-9.5-24.4c-6.3-6.4-14.5-9.7-24.4-9.7Zm11.5,49.2c-3.1,3.5-6.9,5.2-11.4,5.2s-8.3-1.7-11.4-5.2c-3.1-3.5-4.6-8.4-4.6-14.9s1.5-11.5,4.6-14.9,6.9-5.2,11.4-5.2,8.3,1.7,11.4,5.2,4.6,8.4,4.6,14.8-1.5,11.6-4.6,15.1Z"/><path class="cls-1" d="M830.4,388.7c-5.3-7.1-12-10.7-20.1-10.7s-14.4,2.9-19.7,8.7-7.9,14.2-7.9,25.2,2,16.1,6.1,22c5.1,7.5,12.1,11.2,20.9,11.2s14.4-3.5,19.6-10.6v9.6c0,3.9-.3,6.5-.8,8-.8,2-1.9,3.5-3.5,4.4-2.3,1.4-5.7,2-10.2,2s-6.1-.6-7.8-1.9c-1.2-.9-2-2.4-2.3-4.8l-19.8-2.4c0,.8,0,1.5,0,2.1,0,5.8,2.3,10.7,7,14.5,4.7,3.8,12.5,5.7,23.6,5.7s10.8-.6,14.6-1.9c3.8-1.2,6.9-2.9,9.2-5.1s4.1-5.2,5.4-9c1.3-3.8,1.9-9.6,1.9-17.4v-58.8h-16.2v9.2Zm-5.2,37.4c-2.9,3.3-6.5,5-10.7,5s-7.3-1.6-10-4.8-4-8.3-4-15.3,1.3-11.6,4-14.8c2.7-3.2,6.1-4.8,10.3-4.8s7.8,1.6,10.6,4.9c2.8,3.3,4.2,8.3,4.2,15.1s-1.5,11.4-4.4,14.7Z"/><path class="cls-1" d="M886.6,380.2c-2.2,1.4-4.7,4.3-7.4,8.7v-9.3h-16.1v65.6h17.4v-20.3c0-11.2,.5-18.5,1.5-22s2.3-5.9,4-7.3c1.7-1.3,3.7-2,6.2-2s5.2,.9,8.2,2.8l5.4-15.1c-3.7-2.2-7.5-3.3-11.4-3.3s-5.3,.7-7.5,2.1Z"/><path class="cls-1" d="M966,423.6l.2-20.3c0-7.5-.8-12.7-2.3-15.5-1.5-2.8-4.2-5.1-8-7-3.8-1.8-9.6-2.7-17.3-2.7s-14.9,1.5-19.3,4.6c-4.3,3-7.4,7.7-9.1,14.1l15.7,2.8c1.1-3,2.5-5.2,4.2-6.4,1.7-1.2,4.1-1.8,7.2-1.8,4.6,0,7.7,.7,9.3,2.1,1.6,1.4,2.5,3.8,2.5,7.1v1.7c-3.1,1.3-8.7,2.7-16.9,4.3-6,1.2-10.6,2.5-13.8,4-3.2,1.5-5.7,3.8-7.4,6.7s-2.7,6.2-2.7,9.9c0,5.6,1.9,10.2,5.8,13.9,3.9,3.7,9.2,5.5,16,5.5s7.4-.7,10.8-2.2c3.4-1.4,6.5-3.6,9.5-6.5,.1,.3,.3,1,.6,2,.7,2.3,1.2,4,1.7,5.1h17.2c-1.5-3.1-2.6-6.1-3.1-8.8-.6-2.7-.8-7-.8-12.7Zm-16.9-6.5c0,4.2-.2,7-.7,8.5-.7,2.3-2,4.2-4.1,5.7-2.8,2.1-5.8,3.1-9,3.1s-5.1-.9-6.9-2.7c-1.8-1.8-2.7-3.9-2.7-6.3s1.1-4.5,3.4-6.1c1.5-1,4.6-2,9.4-3,4.8-1,8.3-1.9,10.6-2.7v3.5Z"/><path class="cls-1" d="M1019.4,378.1c-4.4,0-8.3,1-11.9,3.1-3.6,2.1-6.4,4.7-8.5,8v-9.6h-16.2v90.5h17.4v-33c3.3,3.5,6.3,6,9.3,7.4,2.9,1.4,6.2,2.2,9.8,2.2,7.6,0,14.1-3,19.4-9.1,5.4-6.1,8-14.6,8-25.5s-2.7-19-8-24.9-11.8-9-19.4-9Zm5.7,49.9c-2.7,3.2-6,4.8-10.1,4.8s-7.8-1.8-10.7-5.3c-2.9-3.5-4.4-9-4.4-16.3s1.4-11.3,4.2-14.5c2.8-3.3,6.3-4.9,10.6-4.9s7.5,1.7,10.2,5c2.8,3.3,4.1,8.4,4.1,15.3s-1.3,12.7-4,15.9Z"/><path class="cls-1" d="M1116,386c-1.6-2.3-4-4.2-7.3-5.7-3.2-1.5-6.8-2.2-10.8-2.2-7.8,0-14.5,3.3-20.1,9.8v-33.3h-17.4v90.5h17.4v-32.8c0-5.5,.5-9.7,1.6-12.5,1.1-2.8,2.7-4.9,5-6.3,2.3-1.4,4.8-2.1,7.7-2.1s4.6,.5,6.3,1.6c1.7,1.1,2.8,2.6,3.5,4.4s1,6.2,1,13.1v34.6h17.4v-38.5c0-5.9-.3-10.2-.9-13-.6-2.8-1.7-5.4-3.3-7.7Z"/><path class="cls-1" d="M1179,379.5l-15.3,46.6-15.7-46.6h-18.5l24.9,65.8c-1,3.7-2.5,6.7-4.4,9-1.9,2.4-4.9,3.5-9,3.5s-4.6-.3-7.3-.8l1.5,13.6c3.2,.7,6.5,1.1,9.8,1.1s6.2-.4,8.9-1.1c2.6-.7,4.8-1.7,6.6-2.9,1.8-1.3,3.4-2.9,4.8-4.9,1.4-2,2.8-4.9,4.4-8.8l4.1-11.4,23.2-63.1h-18Z"/></svg>