<?xml version="1.0" encoding="UTF-8"?><svg id="Layer_1" xmlns="http://www.w3.org/2000/svg" viewBox="0 0 1836 302.9"><defs><style>.cls-1{fill:#004a00;stroke:#235108;stroke-miterlimit:10;}.cls-2{fill:#214212;}</style></defs><path class="cls-2" d="M562,70.9h-12l-2-2-11-4-6-6-5-9-7-13-14-9-12-4h-34.3l-12.7,2v2.6l-16-.6v-1.9l-15-14.1-13-7-7-3-12.7-1.9h-15.5l-11.8,1.9-19,12-18,19h-8l-21-14-24-9-44-1-47,12-44,28-14,7-24,20-17,23-9,19-9,12-8,11-11,14-12,43v7.7l-16,15.3L0,235.4v13.5H6l4-2.9,16-12,11-5,7-5,3-6,2-9,2,2c-2-2,7-2,7-2l20-8,7-3,2-1v18l-15,6-12,8-15,16v7l14,14h6.5l27.5-17-3-1,9,2v2h18l3,7h3l-1,40,2,2,3,2h9.8l1.2-3,5-1,2-3h13v3h6l1-6,1,1v-3l5,1v-4l10,1v-4l2,1-9.5-7.5-25-10-8-7h38l45-14,32.5-27.5,17-6,9-2.4,30-1.6,55,27,9,12h2l1,13h2v2h7l4-5,6-3,7-2h20l13-14,18-12,3-3,.5-6.5-7,1-40,10-23,3-37-26-16-12-8-12-1-44h9l26-16,13-23,6-20v-29l-2-4,7-1,23,15,42,19,6,2,7,1,1-4-1-10,3-8v-9l-5-6,2-6,2-1,1.5-.5,10,12,23,25,2,2v10.1h7.6l9.4-2.1v-2.6l26-.4v3h14s2-5,2-5l2-3v-4.7l-2-1.3Z"/><g><path class="cls-1" d="M652.1,76.9c-.4,.6-.6,1-.7,1.3l-4.1,6.5c-1.4,2.3-2.7,5.2-4,8.7v.3c-.1,0-.7-.4-.7-.4l-.2-.7c-1.2-4.1-2.9-7-5-8.6-2.2-1.6-5.5-2.4-10-2.4s-3.7,0-5.5,.2h-.7v58.9l7.2,5.9h-27.8l8.5-6.4v-54.1h-4.3c-4.2,0-7.2,.7-8.9,2.1-1.8,1.5-2.8,4.1-3.1,7.7h-1.6c.4-4.2,1.7-7.2,3.7-8.9,2-1.7,5.3-2.5,10-2.5h3.7c0,0,.7,0,.7,0v-2.7c-2.1-.2-4-.3-5.9-.3-5.2,0-9,1-11.3,2.9-2.3,1.9-3.6,5.1-3.8,9.7h-.7c-1.7-5-4.4-10.7-8.1-16.9l-.4-.5h73.4Zm-12.4,11.9c-3.1-1.8-6.8-2.7-11-2.7s-1.9,0-2.9,.2l.2,54.6,9.7,10.2h-31.1l-1.4-1.5h29.2l-8.2-8.3v-56.7h3.3c3.9,0,6.7,.2,8.4,.8,1.6,.6,2.9,1.7,3.8,3.3Zm16.3-8.5c-2.8,3.2-5.7,8.5-8.8,15.9l-.2,.5-1.3-1,.2-.5c3-7.5,5.9-12.7,8.7-15.7l.3-.3,1.2,1.1Z"/><path class="cls-1" d="M657.8,76.9h28.6l-8.3,7.2v23.5c.9,.1,2,.3,3.3,.3v-23.3l6.6-5.9,1.2,1-6.3,5.5v22.7l2,.2c3.1,.3,6.2,.4,9.1,.4,4.2,0,7.9-.2,10.9-.5v-25l-7.4-6.1h28.1l-8.4,7.2v56.7l7.4,5.9h-28l8.3-6.4v-23.1c-3.4,.7-6.9,1.1-10.5,1.1s-6.9-.2-10.6-.5h-.9c0,0,0,22.9,0,22.9l10.1,10.3h-31.5l-1.6-1.5h29.7l-8.3-8.1v-25h1.8c5.4,.5,9.2,.7,11.6,.7,3.9,0,7.3-.5,10.2-1.4v-2c-3.8,.5-8.3,.8-13.3,.8s-4.7,0-6-.2l-6.2-.5c-.2,0-.7,0-1.4-.1v27l7.8,5.9h-28.1l8.2-6.4v-23.8c-3.4,0-6.1,1.2-8.2,3.6l-1.3-.5c2.4-2.6,5.5-4.1,9.4-4.4v-2c-4.5,0-8.1,1.5-10.8,4.6l-.9-.5c2.4-5.2,6.3-8.3,11.7-9.2v-24.5l-8.2-6.6Zm70.5,3l-6.2,5.4v55.5l10.1,10.3h-31.6l-1.5-1.5h29.7l-8.2-8.2v-56.7l6.8-6,1,1.1Z"/><path class="cls-1" d="M800.8,76.9l-1,1c-4.1,4.5-7.4,9.7-9.9,15.6-.4-.8-.7-1.4-.9-1.8-2.2-4.4-4.6-7.2-7.2-8.4-2.6-1.3-7.1-1.9-13.8-1.9s-6.7,0-11,.3v25h3.9v-22.1c3.1-.3,6-.4,8.8-.4,5.2,0,9,.5,11.4,1.5,2.4,1,4.6,2.9,6.5,5.7-.6-.4-1-.6-1.2-.8-3.3-2.3-5.7-3.7-7.1-4.1-1.5-.4-4.3-.7-8.7-.7s-3.6,0-6.9,.2h-1.3v20.7h11.2l7.9-9.6v23.4l-7.9-9.1h-16.6v30.5h3.9v-27.9h13.2l1.6,1.4h-13.3v26.5c8.3,0,14.2-.5,17.7-1.6,3.5-1.1,6.2-3.1,8.2-6.2l3.2-4.9c.1-.2,.4-.6,.7-1.2,1.1,4,2.4,7.2,3.9,9.6,1.6,2.4,4.2,5.2,7.8,8.4h-68.3l9.3-6.3v-24.3c-3.4,.4-6.5,1.3-9.3,2.8l-.9-1.1c2.5-1.6,5.8-2.6,10.1-3.1v-2.6c-.7,0-1.2-.1-1.5-.1-4.1,0-7.9,1.4-11.3,4.1,1.9-5.8,6.1-8.7,12.8-8.7v-23.2l-9.3-6.5h65Zm10.2,69.3l-3.2,4.9h-66.5l-1-1.5h66.7l2.1-3.4c-5.8-4.8-10-10-12.4-15.4l1.9,.7c2.2,4.6,6,9.3,11.3,13.9l1,.9Zm-25.2-47.4v24l-1.5-.7v-24l1.5,.7Zm17.9-18.1l-.4,.5c-5,5.9-8.3,10.9-9.9,15l-1-1.1c2.7-5.6,6.2-10.8,10.5-15.4l.9,1.1Z"/></g><g><path class="cls-2" d="M633.6,196l-13.5,27.3c-.9-7.8-3.2-13.7-7.1-17.8-3.9-4.1-9-6.2-15.3-6.2-9.1,0-16.1,3.6-21.1,10.8-5,7.2-7.5,17.3-7.5,30.3,0,28.6,11.4,42.9,34.2,42.9h11.6v-38.5h-18.2c-3.9,0-6.8-.2-8.5-.7-1.7-.4-3.4-1.4-4.9-2.9v-1.9c1.7,1.3,3.5,2.2,5.2,2.6,1.7,.4,4.5,.6,8.4,.6h18v-4h-23.3c-7.2,0-10.8-2.7-10.8-8s.6-3.9,1.8-5.3c1.2-1.5,2.6-2.2,4.3-2.2s2.3,.5,3.3,1.4c.9,.9,1.4,2.1,1.4,3.3,0,2.2-.8,3.4-2.3,3.8l-1.7,.4c-.6,.1-.9,.4-.9,.7,0,.6,.8,1,2.4,1h50.1l-10,10v36.5l9.2,8.2h-44.2c-6.1,0-11.2-.8-15.2-2.3-4-1.5-8-4.2-12.1-8.2-9.7-9.1-14.5-21.3-14.5-36.5s4.6-28.1,13.7-36.9c8-7.8,17.5-11.6,28.5-11.6s10.5,.9,16.9,2.7c6.5,1.8,10.8,2.7,12.9,2.7,3,0,6.1-.8,9.2-2.4Zm-18.8,15.9l-1.3-1c-5.5-4-10.5-6-15-6s-10.2,2-14.2,6c-2.9,3-5,6.8-6.2,11.6-1.3,4.8-1.9,11.1-1.9,19s1,17.6,2.9,22.9c1.9,5.3,5.5,10.1,10.6,14.3v.8c-5.6-3.4-9.6-8.2-12.1-14.4-2.5-6.2-3.7-14.6-3.7-25.2s2.1-20.8,6.4-27.3c4.3-6.5,10.3-9.7,18.1-9.7s12.2,2.9,16.5,8.6v.4Zm27.4,26.1l-7.4,7.6v34.8l12,14.2-28.7-.2-26,.3c-1.6,0-2.9,0-3.8-.1-3-.3-6.1-1.7-9.2-4.1h1.5c3.3,1.5,7.8,2.2,13.4,2.2h3.6c0,0,45,0,45,0l-10-11.3v-36.3l8.3-8.6,1.2,1.7Zm-4.3-37.3l-12.3,24.9-1.7-.8,12.4-25,1.7,.9Z"/><path class="cls-2" d="M719.6,193.4l-7.5,8.7,11.8,32.3,2.9-1.6-10.7-29.2,7.7-9,1.9,.8-7.3,8.7,10.1,27.6c.6-.4,.9-.7,1-.8l2.4-2.1c1.4-1.2,2.4-2,2.7-2.5,1.3,5.6,3.2,10.7,5.8,15.1-1.4,0-2.4-.1-3-.1-4.6,0-7.9,.7-10,2.2l13.1,36.4,10.8,8.6h-36.5l10-8.6-8-21.6c-5.3,5.5-9.4,10.7-12.2,15.6l-1.7-.4c2.8-4.8,7.1-10.2,12.7-16.2l.6-.7-1.4-3.3c-5.7,4.9-10.5,10.6-14.2,17l-1.3-2.1c-2.5-4.1-5.7-8.8-9.6-14l-.7-.9c-3.7,8.4-5.6,15.3-5.6,20.6s.5,5.7,1.6,7.9c1,2.1,3.5,5.7,7.5,10.8,.3,.4,.9,1.1,1.6,2.1h-39l-1.4-2h36.8l-1.2-1.6c-3.2-4-5.3-7-6.2-9.2-1-2.2-1.5-4.8-1.5-7.7,0-5,2-12.5,6-22.5l-3.2-3.4c-.6,1.6-1.4,3.9-2.4,7l-2.4,7.6c-1.3,4.1-1.9,7.4-1.9,10.1s.5,5.1,1.4,6.9c.9,1.8,2.8,4.3,5.8,7.5,.3,.3,.7,.8,1.3,1.4h-36.1c6.9-3.7,12.3-8.6,16.4-14.7,4-6.2,8-15.7,12-28.6l.3-1c-2.6-2.2-6.2-3.6-11-4.1,2.6-4,4.7-8.3,6.1-12.7,.7,.6,1.1,1,1.2,1.2l3.2,3.1c1.1,1.1,2.4,2.2,4,3.3l1.3-3.3-.9-.7c-2.4-2.2-4.4-3.9-6.1-5.3l-.6-.5,1.2-1.6c2.6,1.7,5,3.7,7.4,6l9.8-27.7-7.7-8.4h33.3Zm-21.1,15.2l-11.5,31.1c3.7,3.9,6.8,7.7,9.5,11.4l3.3,4.7s.3,.4,.7,1c.4-.4,.7-.7,.7-.8l1-1.3c.1-.2,.4-.5,.8-1-3.4-5.3-7.3-10.2-11.8-14.5l9.2-25-2-5.7Zm3.2,8.6l-7.9,21.5c.4,.5,.7,.8,.7,.9l3,3.4c1.6,1.8,3.6,4.5,6.1,8.3l.7,1.1c2.1-2.7,4.5-5.3,7.4-7.9l-9.9-27.3Zm39.2,12.7c1.1,4.4,3.7,10.5,7.9,18.3-1.1-.1-1.7-.2-1.8-.2l-5.8-.5c-2.6-.2-4.6-.4-5.8-.4s-.7,0-1.4,0l12.1,32.8,16.1,14.6h-41.8l-1.4-2h38.3l-13-11.8-12.9-34.9c1.6-.4,3.5-.7,5.6-.7s5.5,.2,8.7,.7l-.9-1.6c-3.1-5.8-5.2-11.1-6.2-15.8l2.2,1.4Z"/><path class="cls-2" d="M764.7,193.4h34.5l-10.2,10.2v79.2h.6l2.6,.2h.6v-78.7l7.8-8.1,1,1.6-7,7.3v77.8c2.2,.2,4.2,.3,6.2,.3,7.7,0,13.4-1.7,17.4-5.2,3.9-3.5,6.6-9.2,7.9-17.2,4.5,13.5,9.2,22.7,13.9,27.6h-75.4l10-8.4v-77.3l-10-9.4Zm82.5,94.5l-3.2,6.7h-75.4l-1.8-2h76.4l2.1-4.7c-5.3-6.7-9.5-14.1-12.7-22.3l-.3-.8,2.3,.9,.5,1.3c3.2,7.3,7.1,14.1,11.6,20.2l.6,.7Z"/><path class="cls-2" d="M845.7,193.4h34.5l-10.2,10.2v79.2h.6l2.6,.2h.6v-78.7l7.8-8.1,1,1.6-7,7.3v77.8c2.2,.2,4.2,.3,6.2,.3,7.7,0,13.4-1.7,17.4-5.2,3.9-3.5,6.6-9.2,7.9-17.2,4.5,13.5,9.2,22.7,13.9,27.6h-75.4l10-8.4v-77.3l-10-9.4Zm82.5,94.5l-3.2,6.7h-75.4l-1.8-2h76.4l2.1-4.7c-5.3-6.7-9.5-14.1-12.7-22.3l-.3-.8,2.3,.9,.5,1.3c3.2,7.3,7.1,14.1,11.6,20.2l.6,.7Z"/><path class="cls-2" d="M967.1,192.5c11.7,0,21.1,4.5,28.1,13.6,7,9.1,10.5,21.2,10.5,36.5s-3.5,25.8-10.4,34.4c-6.9,8.5-16.2,12.8-27.8,12.8s-17.4-3-24.6-9c-10.5-8.9-15.8-22.1-15.8-39.5s3.6-26.8,10.8-35.6c7.2-8.8,16.9-13.2,29.2-13.2Zm0,6.4c-16.3,0-24.4,14.7-24.4,44s8,40.7,24,40.7,13.1-3.6,17-10.8c3.9-7.2,5.8-17.7,5.8-31.5s-1.9-26.6-5.6-32.8c-3.9-6.4-9.6-9.6-16.9-9.6Zm23-2.6c6.9,3.4,12.3,9.2,16.3,17.5,4,8.2,6,17.8,6,28.6,0,15.9-3.9,28.8-11.8,38.5s-18.2,14.7-31,14.7-15.8-2.8-23-8.5v-.4c6,4.5,13.5,6.7,22.5,6.7s22-4.7,29.8-14c7.8-9.3,11.6-21.3,11.6-35.8s-1.8-20.3-5.3-28.4c-3.5-8.1-8.6-14.2-15.1-18.2v-.8Zm-7.6,13.7l-1.2-.7c-4.6-2.6-8.9-3.9-12.7-3.9-12.7,0-19,12.8-19,38.3s3.9,31,11.8,37.1l-.7,.7c-4.8-3.5-8.2-8.1-10.3-13.8-2-5.7-3.1-13.4-3.1-23.2,0-27.4,7-41.1,21.1-41.1s11.1,2.2,14.1,6.6Z"/><path class="cls-2" d="M1022.9,193.4h32.4c13.8,0,23.6,2,29.4,5.9,7.4,4.9,11.1,11.7,11.1,20.4s-1.4,9.9-4.3,13.8c-2.8,3.9-6.8,6.7-11.9,8.4-5.1,1.7-13.2,2.6-24.3,2.6h-8.9v35.9l8.8,8.2h-33.6l10-8.7v-29.7c-.6,0-1,0-1.2,0-3.5,0-6.8,.8-10,2.3l-.7-1.3c3.2-1.9,6.1-2.8,8.7-2.8h3.2v-3.7c-1.1-.1-1.9-.2-2.2-.2-5.2,0-9.3,1.3-12.3,3.9l-.7-1.1c2.9-5.5,7.7-8.3,14.2-8.3h1.2v-36.3l-8.8-9Zm69.3,7.9c2.9,1.5,5.3,4.1,7.1,7.8,1.8,3.7,2.7,8,2.7,12.7,0,10.7-4,18.4-12.1,23.1-6.1,3.6-16.6,5.3-31.3,5.3s-4.5,0-6.2-.1v30.6l11.3,13.8h-36.2l-2-2h34l-9.2-11v-33.4c4.2,.2,8.6,.4,13.4,.4,12.4,0,21.6-2.2,27.7-6.7,6-4.5,9-11.4,9-20.7s-.6-7.2-1.7-10-3.3-6.1-6.4-9.7Zm-45.7-.3v37.1h2.8c.2,0,.5,0,.9,0v-33h7.9c6.2,0,10.5,.6,13,1.7s4.7,3.4,6.5,6.9c-1.8-2.5-4-4.3-6.7-5.3-2.7-1-6.4-1.5-11.3-1.5h-7.4v31.3c9.5,0,16.5-1.4,21-4.3,4.5-2.9,6.7-7.4,6.7-13.5s-2-11.9-6-15-10.4-4.7-19.2-4.7-5,0-8.3,.3Z"/><path class="cls-2" d="M1106.4,193.4h34.2l-9.7,10.1v77.1l9.1,7.9h-33.7l10-8.5v-77.3l-10-9.3Zm37.5,4.2l-7.4,7.5v75.5l12.1,13.9h-37.6l-1.8-2h35.1l-9.9-11.2v-76.9l8.2-8.3,1.2,1.5Z"/><path class="cls-2" d="M1234,193.4c-5.5,2.9-9,5.6-10.6,8-2.4,3.8-3.6,9.4-3.6,17v70.1h-12.2l-34.1-67.9v43.6c0,0,.8,10.7,.8,10.7,1,4.9,3.2,8.6,6.6,11l.6,.5c-6.6-2.3-10-9.6-10-21.9v-7c0,0,0-40.5,0-40.5l-3.9-7.8v42.7c0,13.5,.9,22.4,2.6,26.6,1.7,4.2,5.8,7.3,12.2,9.2l6.3,6.9h-39.1l-1.2-2h36.2l-3.8-4.1h-33.7c5.9-2.2,9.8-5.1,11.7-8.7,1.9-3.7,2.9-9.9,2.9-18.8v-59.3l-9.6-8.2h36.5l-10.3,7,35,70v-8.9l-30-59.9,10.1-7,1.4,1.4-9,6.2,27.4,55.3v-38.5c0-8.6-.7-14.3-2.1-17.2s-4.8-5.7-10.1-8.3h32.8Zm2.5,5.5l-1.3,2.2c-3.7,.9-6.2,2.5-7.5,4.9-1.3,2.4-2,6.4-2,12.1v76.4h-15.5l-.9-2h14.5v-73.7c0-7,.9-11.8,2.6-14.6,1.8-2.7,5.1-4.6,10.1-5.4Z"/><path class="cls-2" d="M1322.1,196l-13.5,27.3c-.9-7.8-3.2-13.7-7.1-17.8-3.9-4.1-9-6.2-15.3-6.2-9.1,0-16.1,3.6-21.1,10.8-5,7.2-7.5,17.3-7.5,30.3,0,28.6,11.4,42.9,34.2,42.9h11.6v-38.5h-18.2c-3.9,0-6.8-.2-8.5-.7-1.7-.4-3.4-1.4-4.9-2.9v-1.9c1.7,1.3,3.5,2.2,5.2,2.6,1.7,.4,4.5,.6,8.4,.6h18v-4h-23.3c-7.2,0-10.8-2.7-10.8-8s.6-3.9,1.8-5.3c1.2-1.5,2.6-2.2,4.3-2.2s2.3,.5,3.3,1.4c.9,.9,1.4,2.1,1.4,3.3,0,2.2-.8,3.4-2.3,3.8l-1.7,.4c-.6,.1-.9,.4-.9,.7,0,.6,.8,1,2.4,1h50.1l-10,10v36.5l9.2,8.2h-44.2c-6.1,0-11.2-.8-15.2-2.3s-8-4.2-12.1-8.2c-9.7-9.1-14.5-21.3-14.5-36.5s4.6-28.1,13.7-36.9c8-7.8,17.5-11.6,28.5-11.6s10.5,.9,16.9,2.7c6.5,1.8,10.8,2.7,12.9,2.7,3,0,6.1-.8,9.2-2.4Zm-18.8,15.9l-1.3-1c-5.5-4-10.5-6-15-6s-10.2,2-14.2,6c-2.9,3-5,6.8-6.2,11.6-1.3,4.8-1.9,11.1-1.9,19s1,17.6,2.9,22.9c1.9,5.3,5.5,10.1,10.6,14.3v.8c-5.6-3.4-9.6-8.2-12.1-14.4-2.5-6.2-3.7-14.6-3.7-25.2s2.1-20.8,6.4-27.3c4.3-6.5,10.3-9.7,18.1-9.7s12.2,2.9,16.5,8.6v.4Zm27.4,26.1l-7.4,7.6v34.8l12,14.2-28.7-.2-26,.3c-1.6,0-2.9,0-3.8-.1-3-.3-6.1-1.7-9.2-4.1h1.5c3.3,1.5,7.8,2.2,13.4,2.2h3.6c0,0,45,0,45,0l-10-11.3v-36.3l8.3-8.6,1.2,1.7Zm-4.3-37.3l-12.3,24.9-1.7-.8,12.4-25,1.7,.9Z"/><path class="cls-2" d="M1459.8,196l-13.5,27.3c-.9-7.8-3.2-13.7-7.1-17.8-3.9-4.1-9-6.2-15.3-6.2-9.1,0-16.1,3.6-21.1,10.8-5,7.2-7.5,17.3-7.5,30.3,0,28.6,11.4,42.9,34.2,42.9h11.6v-38.5h-18.2c-3.9,0-6.8-.2-8.5-.7-1.7-.4-3.4-1.4-4.9-2.9v-1.9c1.7,1.3,3.5,2.2,5.2,2.6,1.7,.4,4.5,.6,8.4,.6h18v-4h-23.3c-7.2,0-10.8-2.7-10.8-8s.6-3.9,1.8-5.3c1.2-1.5,2.6-2.2,4.3-2.2s2.3,.5,3.3,1.4c.9,.9,1.4,2.1,1.4,3.3,0,2.2-.8,3.4-2.3,3.8l-1.7,.4c-.6,.1-.9,.4-.9,.7,0,.6,.8,1,2.4,1h50.1l-10,10v36.5l9.2,8.2h-44.2c-6.1,0-11.2-.8-15.2-2.3s-8-4.2-12.1-8.2c-9.7-9.1-14.5-21.3-14.5-36.5s4.6-28.1,13.7-36.9c8-7.8,17.5-11.6,28.5-11.6s10.5,.9,16.9,2.7c6.5,1.8,10.8,2.7,12.9,2.7,3,0,6.1-.8,9.2-2.4Zm-18.8,15.9l-1.3-1c-5.5-4-10.5-6-15-6s-10.2,2-14.2,6c-2.9,3-5,6.8-6.2,11.6-1.3,4.8-1.9,11.1-1.9,19s1,17.6,2.9,22.9c1.9,5.3,5.5,10.1,10.6,14.3v.8c-5.6-3.4-9.6-8.2-12.1-14.4-2.5-6.2-3.7-14.6-3.7-25.2s2.1-20.8,6.4-27.3c4.3-6.5,10.3-9.7,18.1-9.7s12.2,2.9,16.5,8.6v.4Zm27.4,26.1l-7.4,7.6v34.8l12,14.2-28.7-.2-26,.3c-1.6,0-2.9,0-3.8-.1-3-.3-6.1-1.7-9.2-4.1h1.5c3.3,1.5,7.8,2.2,13.4,2.2h3.6c0,0,45,0,45,0l-10-11.3v-36.3l8.3-8.6,1.2,1.7Zm-4.3-37.3l-12.3,24.9-1.7-.8,12.4-25,1.7,.9Z"/><path class="cls-2" d="M1519.5,192.5c11.7,0,21.1,4.5,28.1,13.6,7,9.1,10.5,21.2,10.5,36.5s-3.5,25.8-10.4,34.4c-6.9,8.5-16.2,12.8-27.8,12.8s-17.4-3-24.6-9c-10.5-8.9-15.8-22.1-15.8-39.5s3.6-26.8,10.8-35.6c7.2-8.8,16.9-13.2,29.2-13.2Zm0,6.4c-16.3,0-24.4,14.7-24.4,44s8,40.7,24,40.7,13.1-3.6,17-10.8c3.9-7.2,5.8-17.7,5.8-31.5s-1.9-26.6-5.6-32.8c-3.9-6.4-9.6-9.6-16.9-9.6Zm23-2.6c6.9,3.4,12.3,9.2,16.3,17.5,4,8.2,6,17.8,6,28.6,0,15.9-3.9,28.8-11.8,38.5s-18.2,14.7-31,14.7-15.8-2.8-23-8.5v-.4c6,4.5,13.5,6.7,22.5,6.7s22-4.7,29.8-14c7.8-9.3,11.6-21.3,11.6-35.8s-1.8-20.3-5.3-28.4c-3.5-8.1-8.6-14.2-15.1-18.2v-.8Zm-7.6,13.7l-1.2-.7c-4.6-2.6-8.9-3.9-12.7-3.9-12.7,0-19,12.8-19,38.3s3.9,31,11.8,37.1l-.7,.7c-4.8-3.5-8.2-8.1-10.3-13.8-2-5.7-3.1-13.4-3.1-23.2,0-27.4,7-41.1,21.1-41.1s11.1,2.2,14.1,6.6Z"/><path class="cls-2" d="M1611.8,192.5c11.7,0,21.1,4.5,28.1,13.6,7,9.1,10.5,21.2,10.5,36.5s-3.5,25.8-10.4,34.4c-6.9,8.5-16.2,12.8-27.8,12.8s-17.4-3-24.6-9c-10.5-8.9-15.8-22.1-15.8-39.5s3.6-26.8,10.8-35.6c7.2-8.8,16.9-13.2,29.2-13.2Zm0,6.4c-16.3,0-24.4,14.7-24.4,44s8,40.7,24,40.7,13.1-3.6,17-10.8c3.9-7.2,5.8-17.7,5.8-31.5s-1.9-26.6-5.6-32.8c-3.9-6.4-9.6-9.6-16.9-9.6Zm23-2.6c6.9,3.4,12.3,9.2,16.3,17.5,4,8.2,6,17.8,6,28.6,0,15.9-3.9,28.8-11.8,38.5s-18.2,14.7-31,14.7-15.8-2.8-23-8.5v-.4c6,4.5,13.5,6.7,22.5,6.7s22-4.7,29.8-14c7.8-9.3,11.6-21.3,11.6-35.8s-1.8-20.3-5.3-28.4c-3.5-8.1-8.6-14.2-15.1-18.2v-.8Zm-7.6,13.7l-1.2-.7c-4.6-2.6-8.9-3.9-12.7-3.9-12.7,0-19,12.8-19,38.3s3.9,31,11.8,37.1l-.7,.7c-4.8-3.5-8.2-8.1-10.3-13.8-2-5.7-3.1-13.4-3.1-23.2,0-27.4,7-41.1,21.1-41.1s11.1,2.2,14.1,6.6Z"/><path class="cls-2" d="M1731.4,194.3c-2.5,3.5-4.5,7.1-6,10.8-2.9,7.4-4.9,12-5.8,13.6l-.4,.4c-.2-.5-.3-1-.4-1.3-1.3-4.4-2.5-7.5-3.3-9.3-.9-1.7-2.2-3.4-3.9-5-4.4-4-9.4-6-14.9-6s-9.4,1.5-12.9,4.4c-3.4,2.9-5.1,6.6-5.1,11.1,0,8.3,6.1,14,18.3,17l12.2,3c17.4,4.3,26.1,13.7,26.1,28.2s-3,14.9-8.9,20.4c-5.9,5.5-13.3,8.3-22.1,8.3s-11.6-.9-18.4-2.6l-8.4-2.1c-3.4-.8-6.2-1.3-8.4-1.3s-6,1-9.1,2.9l-.6-1c6-9.2,10.2-18,12.6-26.4l1.3,.4c1,7.8,4,13.8,9.1,18.1,5.1,4.3,11.7,6.4,19.9,6.4s11.6-1.5,15.4-4.6c3.8-3.1,5.7-7.2,5.7-12.4s-2.6-10.9-7.9-14.8c-3.8-2.8-11.6-5.3-23.4-7.7-9.1-1.8-15.7-4.9-19.8-9.1-4.1-4.2-6.1-10.2-6.1-17.7s2.7-14.1,8.2-19c5.5-4.9,12.6-7.3,21.3-7.3s12.2,1,19.7,3.1c3.5,1,6.1,1.5,7.8,1.5s4.9-.8,7.7-2.5l.8,.4Zm0,47.3c6.5,5.1,9.8,12.1,9.8,20.9s-3.6,17.4-10.7,24c-7.1,6.5-15.8,9.8-26,9.8s-9.9-.5-14.1-1.6l-11.6-2.9c-2.7-.7-5.6-1-8.7-1s-5.3,.6-7.6,1.7l-.9-2.1c2.5-1.2,5.1-1.8,7.7-1.8s6.2,.4,9.9,1.3l11.1,2.7c4.4,1.1,9.1,1.6,14,1.6,9.6,0,17.8-3.1,24.6-9.4s10.1-13.9,10.1-22.9-2.6-14.2-7.8-19.9v-.4Zm-60.4-2.7l2.5,1.4c1.6,2.9,6.2,5.3,13.9,7.3l11.6,3c7.9,2,13.2,3.8,15.8,5.2,2.6,1.5,4.5,3.7,5.6,6.6l-.5,.3c-2.2-2.6-4.5-4.4-7-5.6s-7.4-2.6-14.6-4.4c-10.4-2.5-17.4-4.6-20.9-6.4-3.6-1.8-5.7-4.3-6.4-7.4Zm9,24c1.8,8.9,6.5,15.2,14.3,18.9v.6c-9-2.7-14.4-9-16.2-19.1l2-.4Zm34.8-50.8c-5.3-5.8-11-8.7-17-8.7s-6.7,1.1-9.1,3.3c-2.4,2.2-3.6,4.9-3.6,8.3s2.4,7.4,7.3,11.3l.6,.4-.4,.6c-6.4-2.9-9.5-7.1-9.5-12.7s1.3-7,4-9.4c2.7-2.4,6.2-3.6,10.5-3.6s7.8,.9,10.9,2.7c3.1,1.8,5.4,4.3,6.8,7.6l-.5,.3Zm21.1-14.7l-.6,1.1c-2,3.4-3.7,6.7-5.1,9.8-3.4,7.3-5.3,11.3-5.7,12.2l-.4,.5-1.7-.7,.3-.7c1.4-3.3,3.4-7.5,6.1-12.7l4.9-9.8,.4-.6,1.9,1Z"/><path class="cls-2" d="M1823.9,193.4l-1.2,1.4c-4.9,6.2-8.8,13.3-11.7,21.3-.5-1.1-.8-2-1.1-2.5-2.6-5.9-5.5-9.8-8.5-11.5-3-1.7-8.5-2.6-16.3-2.6s-7.9,.1-13,.4v34.1h4.6v-30.2c3.7-.3,7.1-.5,10.5-.5,6.1,0,10.6,.7,13.5,2s5.5,3.9,7.7,7.8c-.7-.5-1.2-.9-1.4-1.1-3.9-3.2-6.7-5-8.4-5.6-1.7-.6-5.2-.9-10.3-.9s-4.3,0-8.2,.3h-1.5v28.2h13.3l9.3-13.1v31.9l-9.3-12.4h-19.7v41.6h4.6v-38.1h15.7l1.9,1.9h-15.7v36.2c9.8,0,16.8-.7,20.9-2.1,4.1-1.4,7.4-4.2,9.7-8.4l3.8-6.7c.1-.3,.4-.8,.9-1.6,1.3,5.4,2.8,9.8,4.7,13,1.9,3.3,4.9,7.1,9.2,11.4h-81l11-8.6v-33c-4,.5-7.7,1.8-11,3.9l-1-1.6c2.9-2.2,6.9-3.6,12-4.2v-3.5c-.8,0-1.4-.1-1.7-.1-4.9,0-9.4,1.9-13.4,5.6,2.2-7.9,7.3-11.9,15.2-11.9v-31.6l-11-8.9h77.1Zm12.1,94.5l-3.8,6.7h-78.9l-1.2-2h79.1l2.5-4.7c-6.9-6.6-11.8-13.6-14.7-21l2.3,.9c2.6,6.3,7.1,12.6,13.4,19l1.2,1.2Zm-29.9-64.6v32.8l-1.8-1v-32.8l1.8,1Zm21.2-24.7l-.5,.7c-5.9,8.1-9.8,14.9-11.8,20.4l-1.2-1.6c3.2-7.7,7.4-14.7,12.5-21l1,1.6Z"/></g></svg>